<svg xmlns="http://www.w3.org/2000/svg" xmlns:xlink="http://www.w3.org/1999/xlink" zoomAndPan="magnify" preserveAspectRatio="xMidYMid meet" version="1.0" viewBox="75.66 75.41 70.43 83.91"><defs><g/><clipPath id="cbea3e2590"><path d="M 107 97 L 146.085938 97 L 146.085938 137 L 107 137 Z M 107 97 " clip-rule="nonzero"/></clipPath><clipPath id="622a881f60"><path d="M 91 75.40625 L 115 75.40625 L 115 82 L 91 82 Z M 91 75.40625 " clip-rule="nonzero"/></clipPath><clipPath id="456d7fd3fd"><path d="M 75.660156 90 L 97 90 L 97 97 L 75.660156 97 Z M 75.660156 90 " clip-rule="nonzero"/></clipPath><clipPath id="4e5de1b45b"><path d="M 75.660156 113 L 89 113 L 89 117 L 75.660156 117 Z M 75.660156 113 " clip-rule="nonzero"/></clipPath><clipPath id="76ee35ff1c"><path d="M 75.660156 137 L 96 137 L 96 144 L 75.660156 144 Z M 75.660156 137 " clip-rule="nonzero"/></clipPath><clipPath id="9a86f729c1"><path d="M 91 153 L 115 153 L 115 159.316406 L 91 159.316406 Z M 91 153 " clip-rule="nonzero"/></clipPath></defs><path fill="#f5917b" d="M 126.742188 140.023438 L 126.742188 150.980469 C 118.410156 150.980469 110.777344 147.972656 104.863281 142.976562 L 111.867188 134.582031 L 111.871094 134.582031 C 115.890625 137.980469 121.078125 140.023438 126.742188 140.023438 " fill-opacity="1" fill-rule="nonzero"/><path fill="#f14662" d="M 111.867188 134.582031 L 104.863281 142.976562 C 99.59375 138.527344 95.6875 132.5 93.855469 125.621094 L 104.386719 122.785156 C 105.628906 127.460938 108.285156 131.558594 111.867188 134.582031 " fill-opacity="1" fill-rule="nonzero"/><path fill="#46a998" d="M 103.605469 116.765625 C 103.605469 118.847656 103.875 120.867188 104.386719 122.785156 L 93.855469 125.621094 C 93.105469 122.796875 92.707031 119.828125 92.707031 116.765625 C 92.707031 112.652344 93.425781 108.710938 94.75 105.058594 L 104.992188 108.808594 C 104.09375 111.289062 103.605469 113.96875 103.605469 116.765625 " fill-opacity="1" fill-rule="nonzero"/><path fill="#235a73" d="M 113.46875 97.710938 C 109.621094 100.425781 106.628906 104.289062 104.992188 108.808594 L 94.75 105.058594 C 97.15625 98.414062 101.554688 92.726562 107.21875 88.734375 L 113.46875 97.710938 " fill-opacity="1" fill-rule="nonzero"/><path fill="#1d3055" d="M 126.742188 82.550781 L 126.742188 93.503906 C 121.800781 93.503906 117.226562 95.058594 113.46875 97.710938 L 107.21875 88.734375 C 112.746094 84.835938 119.476562 82.550781 126.742188 82.550781 " fill-opacity="1" fill-rule="nonzero"/><g clip-path="url(#cbea3e2590)"><path fill="#e9eaea" d="M 146.0625 116.765625 C 146.0625 127.492188 137.410156 136.1875 126.742188 136.1875 C 116.070312 136.1875 107.421875 127.492188 107.421875 116.765625 C 107.421875 106.039062 116.070312 97.34375 126.742188 97.34375 C 137.410156 97.34375 146.0625 106.039062 146.0625 116.765625 " fill-opacity="1" fill-rule="nonzero"/></g><g clip-path="url(#622a881f60)"><path fill="#1d3055" d="M 110.171875 76.382812 L 93.945312 76.382812 C 93.808594 75.820312 93.304688 75.40625 92.707031 75.40625 C 92 75.40625 91.425781 75.980469 91.425781 76.691406 C 91.425781 77.402344 92 77.980469 92.707031 77.980469 C 93.296875 77.980469 93.792969 77.574219 93.941406 77.027344 L 109.890625 77.027344 L 113.824219 81.300781 L 114.292969 80.863281 L 110.171875 76.382812 " fill-opacity="1" fill-rule="nonzero"/></g><g clip-path="url(#456d7fd3fd)"><path fill="#235a73" d="M 91.886719 91.324219 L 78.191406 91.324219 C 78.050781 90.765625 77.550781 90.355469 76.953125 90.355469 C 76.246094 90.355469 75.675781 90.929688 75.675781 91.640625 C 75.675781 92.351562 76.246094 92.929688 76.953125 92.929688 C 77.546875 92.929688 78.046875 92.519531 78.191406 91.96875 L 91.605469 91.96875 L 95.539062 96.242188 L 96.007812 95.804688 L 91.886719 91.324219 " fill-opacity="1" fill-rule="nonzero"/></g><g clip-path="url(#4e5de1b45b)"><path fill="#46a998" d="M 88.679688 114.636719 L 78.191406 114.636719 C 78.050781 114.085938 77.550781 113.675781 76.953125 113.675781 C 76.246094 113.675781 75.675781 114.25 75.675781 114.960938 C 75.675781 115.671875 76.246094 116.246094 76.953125 116.246094 C 77.550781 116.246094 78.050781 115.835938 78.191406 115.285156 L 88.679688 115.285156 L 88.679688 114.636719 " fill-opacity="1" fill-rule="nonzero"/></g><g clip-path="url(#76ee35ff1c)"><path fill="#f14662" d="M 95.566406 137.671875 L 95.097656 137.234375 L 91.164062 141.507812 L 78.195312 141.507812 C 78.054688 140.949219 77.554688 140.535156 76.953125 140.535156 C 76.246094 140.535156 75.675781 141.113281 75.675781 141.824219 C 75.675781 142.535156 76.246094 143.109375 76.953125 143.109375 C 77.546875 143.109375 78.042969 142.703125 78.191406 142.15625 L 91.445312 142.15625 L 95.566406 137.671875 " fill-opacity="1" fill-rule="nonzero"/></g><g clip-path="url(#9a86f729c1)"><path fill="#f5917b" d="M 114.292969 153.863281 L 113.824219 153.425781 L 109.890625 157.699219 L 93.941406 157.699219 C 93.796875 157.148438 93.300781 156.742188 92.707031 156.742188 C 92 156.742188 91.425781 157.320312 91.425781 158.027344 C 91.425781 158.738281 92 159.316406 92.707031 159.316406 C 93.304688 159.316406 93.804688 158.902344 93.945312 158.347656 L 110.171875 158.347656 L 114.292969 153.863281 " fill-opacity="1" fill-rule="nonzero"/></g><g fill="#22a71b" fill-opacity="1"><g transform="translate(111.431481, 130.376808)"><g><path d="M 1.554688 -13.878906 C 1.554688 -10.011719 3.230469 -6.460938 5.625 -3.910156 C 8.054688 -1.355469 11.566406 0.199219 15.355469 0.199219 C 21.855469 0.199219 26.960938 -4.109375 28.558594 -10.449219 L 24.609375 -10.449219 C 23.171875 -6.222656 19.582031 -3.789062 15.355469 -3.789062 C 12.683594 -3.789062 10.011719 -4.90625 8.257812 -6.742188 C 6.5 -8.574219 5.464844 -11.085938 5.464844 -13.878906 C 5.464844 -16.75 6.539062 -19.222656 8.296875 -21.058594 C 10.050781 -22.894531 12.683594 -24.167969 15.355469 -24.167969 C 19.464844 -24.167969 22.894531 -21.9375 24.367188 -17.75 L 28.359375 -17.75 C 26.761719 -24.050781 21.738281 -28.15625 15.355469 -28.15625 C 11.566406 -28.15625 7.9375 -26.402344 5.503906 -23.890625 C 3.109375 -21.339844 1.554688 -17.828125 1.554688 -13.878906 Z M 1.554688 -13.878906 "/></g></g></g></svg>