<svg xmlns="http://www.w3.org/2000/svg" xmlns:xlink="http://www.w3.org/1999/xlink" width="500" zoomAndPan="magnify" viewBox="0 0 375 374.999991" height="500" preserveAspectRatio="xMidYMid meet" version="1.0"><defs><g/><clipPath id="d2b752eda3"><path d="M 77 152 L 107.722656 152 L 107.722656 183 L 77 183 Z M 77 152 " clip-rule="nonzero"/></clipPath><clipPath id="888befbae0"><path d="M 65 135.726562 L 84 135.726562 L 84 141 L 65 141 Z M 65 135.726562 " clip-rule="nonzero"/></clipPath><clipPath id="7522a1e3ce"><path d="M 52.972656 147 L 69 147 L 69 152 L 52.972656 152 Z M 52.972656 147 " clip-rule="nonzero"/></clipPath><clipPath id="63d287bab9"><path d="M 52.972656 165 L 64 165 L 64 168 L 52.972656 168 Z M 52.972656 165 " clip-rule="nonzero"/></clipPath><clipPath id="48f3f0ae21"><path d="M 52.972656 183 L 69 183 L 69 188 L 52.972656 188 Z M 52.972656 183 " clip-rule="nonzero"/></clipPath><clipPath id="0d398fa367"><path d="M 65 195 L 84 195 L 84 200.226562 L 65 200.226562 Z M 65 195 " clip-rule="nonzero"/></clipPath></defs><path fill="#f5917b" d="M 92.683594 185.394531 L 92.683594 193.816406 C 86.207031 193.816406 80.273438 191.503906 75.675781 187.664062 L 81.121094 181.214844 C 84.25 183.824219 88.28125 185.394531 92.683594 185.394531 " fill-opacity="1" fill-rule="nonzero"/><path fill="#f14662" d="M 81.121094 181.214844 L 75.675781 187.664062 C 71.582031 184.246094 68.542969 179.613281 67.121094 174.328125 L 75.308594 172.144531 C 76.273438 175.742188 78.335938 178.890625 81.121094 181.214844 " fill-opacity="1" fill-rule="nonzero"/><path fill="#46a998" d="M 74.699219 167.515625 C 74.699219 169.117188 74.910156 170.667969 75.308594 172.144531 L 67.121094 174.328125 C 66.539062 172.15625 66.226562 169.871094 66.226562 167.515625 C 66.226562 164.355469 66.785156 161.328125 67.816406 158.519531 L 75.777344 161.402344 C 75.078125 163.308594 74.699219 165.371094 74.699219 167.515625 " fill-opacity="1" fill-rule="nonzero"/><path fill="#235a73" d="M 82.367188 152.871094 C 79.375 154.957031 77.050781 157.929688 75.777344 161.402344 L 67.816406 158.519531 C 69.6875 153.410156 73.105469 149.042969 77.507812 145.972656 L 82.367188 152.871094 " fill-opacity="1" fill-rule="nonzero"/><path fill="#1d3055" d="M 92.683594 141.21875 L 92.683594 149.636719 C 88.84375 149.636719 85.285156 150.832031 82.367188 152.871094 L 77.507812 145.972656 C 81.804688 142.976562 87.035156 141.21875 92.683594 141.21875 " fill-opacity="1" fill-rule="nonzero"/><g clip-path="url(#d2b752eda3)"><path fill="#e9eaea" d="M 107.699219 167.515625 C 107.699219 175.761719 100.976562 182.449219 92.683594 182.449219 C 84.386719 182.449219 77.664062 175.761719 77.664062 167.515625 C 77.664062 159.273438 84.386719 152.589844 92.683594 152.589844 C 100.976562 152.589844 107.699219 159.273438 107.699219 167.515625 " fill-opacity="1" fill-rule="nonzero"/></g><g clip-path="url(#888befbae0)"><path fill="#1d3055" d="M 79.804688 136.476562 L 67.191406 136.476562 C 67.082031 136.046875 66.691406 135.726562 66.226562 135.726562 C 65.675781 135.726562 65.230469 136.167969 65.230469 136.714844 C 65.230469 137.261719 65.675781 137.703125 66.226562 137.703125 C 66.6875 137.703125 67.070312 137.394531 67.1875 136.972656 L 79.585938 136.972656 L 82.640625 140.257812 L 83.007812 139.921875 L 79.804688 136.476562 " fill-opacity="1" fill-rule="nonzero"/></g><g clip-path="url(#7522a1e3ce)"><path fill="#235a73" d="M 65.589844 147.960938 L 54.945312 147.960938 C 54.835938 147.535156 54.445312 147.21875 53.980469 147.21875 C 53.433594 147.21875 52.988281 147.660156 52.988281 148.207031 C 52.988281 148.753906 53.433594 149.195312 53.980469 149.195312 C 54.445312 149.195312 54.832031 148.882812 54.941406 148.457031 L 65.371094 148.457031 L 68.425781 151.742188 L 68.792969 151.40625 L 65.589844 147.960938 " fill-opacity="1" fill-rule="nonzero"/></g><g clip-path="url(#63d287bab9)"><path fill="#46a998" d="M 63.09375 165.882812 L 54.945312 165.882812 C 54.832031 165.457031 54.445312 165.140625 53.980469 165.140625 C 53.433594 165.140625 52.988281 165.585938 52.988281 166.132812 C 52.988281 166.675781 53.433594 167.121094 53.980469 167.121094 C 54.445312 167.121094 54.832031 166.804688 54.945312 166.378906 L 63.09375 166.378906 L 63.09375 165.882812 " fill-opacity="1" fill-rule="nonzero"/></g><g clip-path="url(#48f3f0ae21)"><path fill="#f14662" d="M 68.449219 183.589844 L 68.082031 183.253906 L 65.027344 186.539062 L 54.945312 186.539062 C 54.835938 186.109375 54.449219 185.789062 53.980469 185.789062 C 53.433594 185.789062 52.988281 186.234375 52.988281 186.78125 C 52.988281 187.324219 53.433594 187.769531 53.980469 187.769531 C 54.441406 187.769531 54.828125 187.457031 54.941406 187.035156 L 65.246094 187.035156 L 68.449219 183.589844 " fill-opacity="1" fill-rule="nonzero"/></g><g clip-path="url(#0d398fa367)"><path fill="#f5917b" d="M 83.007812 196.035156 L 82.640625 195.699219 L 79.585938 198.984375 L 67.1875 198.984375 C 67.074219 198.558594 66.6875 198.246094 66.226562 198.246094 C 65.675781 198.246094 65.230469 198.691406 65.230469 199.238281 C 65.230469 199.78125 65.675781 200.226562 66.226562 200.226562 C 66.691406 200.226562 67.082031 199.910156 67.1875 199.480469 L 79.804688 199.480469 L 83.007812 196.035156 " fill-opacity="1" fill-rule="nonzero"/></g><g fill="#22a71b" fill-opacity="1"><g transform="translate(109.252769, 176.570113)"><g><path d="M 1.199219 -10.695312 C 1.199219 -7.714844 2.488281 -4.976562 4.332031 -3.011719 C 6.207031 -1.042969 8.914062 0.152344 11.832031 0.152344 C 16.839844 0.152344 20.773438 -3.164062 22.003906 -8.050781 L 18.960938 -8.050781 C 17.855469 -4.792969 15.089844 -2.917969 11.832031 -2.917969 C 9.773438 -2.917969 7.714844 -3.78125 6.363281 -5.195312 C 5.007812 -6.605469 4.210938 -8.542969 4.210938 -10.695312 C 4.210938 -12.90625 5.039062 -14.8125 6.390625 -16.226562 C 7.746094 -17.640625 9.773438 -18.625 11.832031 -18.625 C 14.996094 -18.625 17.640625 -16.902344 18.777344 -13.675781 L 21.851562 -13.675781 C 20.621094 -18.53125 16.75 -21.695312 11.832031 -21.695312 C 8.914062 -21.695312 6.117188 -20.34375 4.242188 -18.40625 C 2.398438 -16.441406 1.199219 -13.738281 1.199219 -10.695312 Z M 1.199219 -10.695312 "/></g></g></g><g fill="#22a71b" fill-opacity="1"><g transform="translate(137.157067, 176.570113)"><g><path d="M 15.859375 -3.105469 L 5.746094 -3.105469 L 5.746094 -21.511719 L 2.644531 -21.511719 L 2.644531 0 L 15.859375 0 Z M 15.859375 -3.105469 "/></g></g></g><g fill="#22a71b" fill-opacity="1"><g transform="translate(157.90089, 176.570113)"><g><path d="M 5.316406 -5.441406 L 14.042969 -5.441406 L 16.101562 0 L 19.421875 0 L 10.785156 -21.789062 L 8.511719 -21.789062 L -0.121094 0 L 3.226562 0 Z M 12.90625 -8.359375 L 6.453125 -8.359375 L 9.679688 -16.839844 Z M 12.90625 -8.359375 "/></g></g></g><g fill="#22a71b" fill-opacity="1"><g transform="translate(182.117389, 176.570113)"><g><path d="M 10.511719 -21.511719 L 2.644531 -21.511719 L 2.644531 0 L 5.777344 0 L 5.777344 -7.160156 L 10.511719 -7.160156 C 15.152344 -7.160156 17.484375 -10.726562 17.484375 -14.320312 C 17.484375 -17.917969 15.152344 -21.511719 10.511719 -21.511719 Z M 10.511719 -10.234375 L 5.777344 -10.234375 L 5.777344 -18.378906 L 10.511719 -18.378906 C 13.121094 -18.378906 14.414062 -16.347656 14.414062 -14.289062 C 14.414062 -12.261719 13.121094 -10.234375 10.511719 -10.234375 Z M 10.511719 -10.234375 "/></g></g></g><g fill="#22a71b" fill-opacity="1"><g transform="translate(205.104631, 176.570113)"><g><path d="M 1.199219 -10.695312 C 1.199219 -7.714844 2.488281 -4.976562 4.332031 -3.011719 C 6.207031 -1.042969 8.914062 0.152344 11.832031 0.152344 C 16.839844 0.152344 20.773438 -3.164062 22.003906 -8.050781 L 18.960938 -8.050781 C 17.855469 -4.792969 15.089844 -2.917969 11.832031 -2.917969 C 9.773438 -2.917969 7.714844 -3.78125 6.363281 -5.195312 C 5.007812 -6.605469 4.210938 -8.542969 4.210938 -10.695312 C 4.210938 -12.90625 5.039062 -14.8125 6.390625 -16.226562 C 7.746094 -17.640625 9.773438 -18.625 11.832031 -18.625 C 14.996094 -18.625 17.640625 -16.902344 18.777344 -13.675781 L 21.851562 -13.675781 C 20.621094 -18.53125 16.75 -21.695312 11.832031 -21.695312 C 8.914062 -21.695312 6.117188 -20.34375 4.242188 -18.40625 C 2.398438 -16.441406 1.199219 -13.738281 1.199219 -10.695312 Z M 1.199219 -10.695312 "/></g></g></g><g fill="#22a71b" fill-opacity="1"><g transform="translate(233.008931, 176.570113)"><g><path d="M 1.074219 -10.757812 C 1.074219 -4.546875 6.023438 0.398438 12.230469 0.398438 C 18.4375 0.398438 23.417969 -4.546875 23.417969 -10.757812 C 23.417969 -16.964844 18.4375 -21.941406 12.230469 -21.941406 C 6.023438 -21.941406 1.074219 -16.964844 1.074219 -10.757812 Z M 4.273438 -10.757812 C 4.273438 -15.179688 7.804688 -18.746094 12.230469 -18.746094 C 16.65625 -18.746094 20.222656 -15.179688 20.222656 -10.757812 C 20.222656 -6.332031 16.65625 -2.796875 12.230469 -2.796875 C 7.804688 -2.796875 4.273438 -6.332031 4.273438 -10.757812 Z M 4.273438 -10.757812 "/></g></g></g><g fill="#22a71b" fill-opacity="1"><g transform="translate(262.449808, 176.570113)"><g><path d="M 10.355469 -21.695312 L 2.644531 -21.695312 L 2.644531 0 L 10.355469 0 C 17.394531 0 20.929688 -5.347656 20.929688 -10.726562 C 20.929688 -16.101562 17.394531 -21.695312 10.355469 -21.695312 Z M 10.355469 -3.105469 L 5.746094 -3.105469 L 5.746094 -18.59375 L 10.355469 -18.59375 C 15.335938 -18.59375 17.855469 -14.535156 17.855469 -10.726562 C 17.855469 -6.914062 15.335938 -3.105469 10.355469 -3.105469 Z M 10.355469 -3.105469 "/></g></g></g><g fill="#22a71b" fill-opacity="1"><g transform="translate(289.462876, 176.570113)"><g><path d="M 15.765625 -3.105469 L 5.777344 -3.105469 L 5.777344 -9.433594 L 15.519531 -9.433594 L 15.519531 -12.570312 L 5.777344 -12.570312 L 5.777344 -18.625 L 15.734375 -18.625 L 15.734375 -21.726562 L 2.644531 -21.726562 L 2.644531 0 L 15.765625 0 Z M 15.765625 -3.105469 "/></g></g></g></svg>