<svg xmlns="http://www.w3.org/2000/svg" xmlns:xlink="http://www.w3.org/1999/xlink" width="668" zoomAndPan="magnify" viewBox="0 0 501 234.749995" height="313" preserveAspectRatio="xMidYMid meet" version="1.0"><defs><g/><clipPath id="d47221e279"><path d="M 107 97 L 146.332031 97 L 146.332031 137 L 107 137 Z M 107 97 " clip-rule="nonzero"/></clipPath><clipPath id="2ab8de9f32"><path d="M 91 75.285156 L 115 75.285156 L 115 82 L 91 82 Z M 91 75.285156 " clip-rule="nonzero"/></clipPath><clipPath id="e02328a965"><path d="M 75.910156 90 L 97 90 L 97 97 L 75.910156 97 Z M 75.910156 90 " clip-rule="nonzero"/></clipPath><clipPath id="058eafbccc"><path d="M 75.910156 113 L 89 113 L 89 117 L 75.910156 117 Z M 75.910156 113 " clip-rule="nonzero"/></clipPath><clipPath id="5273d74038"><path d="M 75.910156 137 L 96 137 L 96 143 L 75.910156 143 Z M 75.910156 137 " clip-rule="nonzero"/></clipPath><clipPath id="70ae4c07f8"><path d="M 91 153 L 115 153 L 115 159.195312 L 91 159.195312 Z M 91 153 " clip-rule="nonzero"/></clipPath></defs><path fill="#f5917b" d="M 126.988281 139.902344 L 126.988281 150.859375 C 118.660156 150.859375 111.027344 147.851562 105.113281 142.855469 L 112.117188 134.460938 C 116.140625 137.855469 121.328125 139.902344 126.988281 139.902344 " fill-opacity="1" fill-rule="nonzero"/><path fill="#f14662" d="M 112.117188 134.460938 L 105.113281 142.855469 C 99.84375 138.40625 95.933594 132.378906 94.105469 125.5 L 104.636719 122.664062 C 105.878906 127.339844 108.535156 131.4375 112.117188 134.460938 " fill-opacity="1" fill-rule="nonzero"/><path fill="#46a998" d="M 103.851562 116.644531 C 103.851562 118.726562 104.125 120.742188 104.636719 122.664062 L 94.105469 125.5 C 93.355469 122.675781 92.953125 119.707031 92.953125 116.644531 C 92.953125 112.53125 93.675781 108.589844 95 104.9375 L 105.242188 108.683594 C 104.34375 111.167969 103.851562 113.847656 103.851562 116.644531 " fill-opacity="1" fill-rule="nonzero"/><path fill="#235a73" d="M 113.71875 97.589844 C 109.867188 100.304688 106.878906 104.167969 105.242188 108.683594 L 95 104.9375 C 97.40625 98.292969 101.800781 92.605469 107.464844 88.613281 L 113.71875 97.589844 " fill-opacity="1" fill-rule="nonzero"/><path fill="#1d3055" d="M 126.988281 82.425781 L 126.988281 93.382812 C 122.050781 93.382812 117.472656 94.9375 113.71875 97.589844 L 107.464844 88.613281 C 112.992188 84.714844 119.726562 82.425781 126.988281 82.425781 " fill-opacity="1" fill-rule="nonzero"/><g clip-path="url(#d47221e279)"><path fill="#e9eaea" d="M 146.308594 116.644531 C 146.308594 127.371094 137.660156 136.066406 126.988281 136.066406 C 116.320312 136.066406 107.667969 127.371094 107.667969 116.644531 C 107.667969 105.917969 116.320312 97.21875 126.988281 97.21875 C 137.660156 97.21875 146.308594 105.917969 146.308594 116.644531 " fill-opacity="1" fill-rule="nonzero"/></g><g clip-path="url(#2ab8de9f32)"><path fill="#1d3055" d="M 110.417969 76.261719 L 94.195312 76.261719 C 94.054688 75.699219 93.554688 75.285156 92.953125 75.285156 C 92.246094 75.285156 91.675781 75.859375 91.675781 76.570312 C 91.675781 77.28125 92.246094 77.859375 92.953125 77.859375 C 93.546875 77.859375 94.042969 77.453125 94.1875 76.90625 L 110.140625 76.90625 L 114.070312 81.179688 L 114.542969 80.742188 L 110.417969 76.261719 " fill-opacity="1" fill-rule="nonzero"/></g><g clip-path="url(#e02328a965)"><path fill="#235a73" d="M 92.132812 91.203125 L 78.441406 91.203125 C 78.300781 90.644531 77.800781 90.234375 77.203125 90.234375 C 76.496094 90.234375 75.921875 90.808594 75.921875 91.519531 C 75.921875 92.230469 76.496094 92.804688 77.203125 92.804688 C 77.796875 92.804688 78.292969 92.398438 78.4375 91.847656 L 91.855469 91.847656 L 95.785156 96.121094 L 96.257812 95.683594 L 92.132812 91.203125 " fill-opacity="1" fill-rule="nonzero"/></g><g clip-path="url(#058eafbccc)"><path fill="#46a998" d="M 88.925781 114.515625 L 78.441406 114.515625 C 78.296875 113.960938 77.796875 113.550781 77.203125 113.550781 C 76.496094 113.550781 75.921875 114.128906 75.921875 114.839844 C 75.921875 115.550781 76.496094 116.125 77.203125 116.125 C 77.796875 116.125 78.296875 115.714844 78.441406 115.160156 L 88.925781 115.160156 L 88.925781 114.515625 " fill-opacity="1" fill-rule="nonzero"/></g><g clip-path="url(#5273d74038)"><path fill="#f14662" d="M 95.816406 137.550781 L 95.34375 137.113281 L 91.414062 141.386719 L 78.441406 141.386719 C 78.304688 140.828125 77.800781 140.414062 77.203125 140.414062 C 76.496094 140.414062 75.921875 140.992188 75.921875 141.703125 C 75.921875 142.414062 76.496094 142.988281 77.203125 142.988281 C 77.796875 142.988281 78.292969 142.582031 78.4375 142.035156 L 91.691406 142.035156 L 95.816406 137.550781 " fill-opacity="1" fill-rule="nonzero"/></g><g clip-path="url(#70ae4c07f8)"><path fill="#f5917b" d="M 114.542969 153.742188 L 114.070312 153.304688 L 110.140625 157.578125 L 94.191406 157.578125 C 94.046875 157.027344 93.546875 156.621094 92.953125 156.621094 C 92.246094 156.621094 91.675781 157.195312 91.675781 157.90625 C 91.675781 158.617188 92.246094 159.195312 92.953125 159.195312 C 93.550781 159.195312 94.054688 158.78125 94.191406 158.222656 L 110.417969 158.222656 L 114.542969 153.742188 " fill-opacity="1" fill-rule="nonzero"/></g><g fill="#22a71b" fill-opacity="1"><g transform="translate(148.949424, 128.292168)"><g><path d="M 1.554688 -13.878906 C 1.554688 -10.011719 3.230469 -6.460938 5.625 -3.910156 C 8.054688 -1.355469 11.566406 0.199219 15.355469 0.199219 C 21.855469 0.199219 26.960938 -4.109375 28.558594 -10.449219 L 24.609375 -10.449219 C 23.171875 -6.222656 19.582031 -3.789062 15.355469 -3.789062 C 12.683594 -3.789062 10.011719 -4.90625 8.257812 -6.742188 C 6.5 -8.574219 5.464844 -11.085938 5.464844 -13.878906 C 5.464844 -16.75 6.539062 -19.222656 8.296875 -21.058594 C 10.050781 -22.894531 12.683594 -24.167969 15.355469 -24.167969 C 19.464844 -24.167969 22.894531 -21.9375 24.367188 -17.75 L 28.359375 -17.75 C 26.761719 -24.050781 21.738281 -28.15625 15.355469 -28.15625 C 11.566406 -28.15625 7.9375 -26.402344 5.503906 -23.890625 C 3.109375 -21.339844 1.554688 -17.828125 1.554688 -13.878906 Z M 1.554688 -13.878906 "/></g></g></g><g fill="#22a71b" fill-opacity="1"><g transform="translate(185.164096, 128.292168)"><g><path d="M 20.582031 -4.027344 L 7.457031 -4.027344 L 7.457031 -27.917969 L 3.429688 -27.917969 L 3.429688 0 L 20.582031 0 Z M 20.582031 -4.027344 "/></g></g></g><g fill="#22a71b" fill-opacity="1"><g transform="translate(212.085782, 128.292168)"><g><path d="M 6.898438 -7.058594 L 18.226562 -7.058594 L 20.898438 0 L 25.207031 0 L 14 -28.277344 L 11.046875 -28.277344 L -0.160156 0 L 4.1875 0 Z M 16.75 -10.847656 L 8.375 -10.847656 L 12.5625 -21.855469 Z M 16.75 -10.847656 "/></g></g></g><g fill="#22a71b" fill-opacity="1"><g transform="translate(243.514367, 128.292168)"><g><path d="M 13.640625 -27.917969 L 3.429688 -27.917969 L 3.429688 0 L 7.5 0 L 7.5 -9.292969 L 13.640625 -9.292969 C 19.664062 -9.292969 22.695312 -13.917969 22.695312 -18.585938 C 22.695312 -23.253906 19.664062 -27.917969 13.640625 -27.917969 Z M 13.640625 -13.28125 L 7.5 -13.28125 L 7.5 -23.851562 L 13.640625 -23.851562 C 17.03125 -23.851562 18.707031 -21.21875 18.707031 -18.546875 C 18.707031 -15.914062 17.03125 -13.28125 13.640625 -13.28125 Z M 13.640625 -13.28125 "/></g></g></g><g fill="#22a71b" fill-opacity="1"><g transform="translate(273.3476, 128.292168)"><g><path d="M 1.554688 -13.878906 C 1.554688 -10.011719 3.230469 -6.460938 5.625 -3.910156 C 8.054688 -1.355469 11.566406 0.199219 15.355469 0.199219 C 21.855469 0.199219 26.960938 -4.109375 28.558594 -10.449219 L 24.609375 -10.449219 C 23.171875 -6.222656 19.582031 -3.789062 15.355469 -3.789062 C 12.683594 -3.789062 10.011719 -4.90625 8.257812 -6.742188 C 6.5 -8.574219 5.464844 -11.085938 5.464844 -13.878906 C 5.464844 -16.75 6.539062 -19.222656 8.296875 -21.058594 C 10.050781 -22.894531 12.683594 -24.167969 15.355469 -24.167969 C 19.464844 -24.167969 22.894531 -21.9375 24.367188 -17.75 L 28.359375 -17.75 C 26.761719 -24.050781 21.738281 -28.15625 15.355469 -28.15625 C 11.566406 -28.15625 7.9375 -26.402344 5.503906 -23.890625 C 3.109375 -21.339844 1.554688 -17.828125 1.554688 -13.878906 Z M 1.554688 -13.878906 "/></g></g></g><g fill="#22a71b" fill-opacity="1"><g transform="translate(309.562275, 128.292168)"><g><path d="M 1.394531 -13.960938 C 1.394531 -5.902344 7.816406 0.519531 15.875 0.519531 C 23.929688 0.519531 30.390625 -5.902344 30.390625 -13.960938 C 30.390625 -22.015625 23.929688 -28.476562 15.875 -28.476562 C 7.816406 -28.476562 1.394531 -22.015625 1.394531 -13.960938 Z M 5.542969 -13.960938 C 5.542969 -19.703125 10.128906 -24.328125 15.875 -24.328125 C 21.617188 -24.328125 26.242188 -19.703125 26.242188 -13.960938 C 26.242188 -8.214844 21.617188 -3.628906 15.875 -3.628906 C 10.128906 -3.628906 5.542969 -8.214844 5.542969 -13.960938 Z M 5.542969 -13.960938 "/></g></g></g><g fill="#22a71b" fill-opacity="1"><g transform="translate(347.771145, 128.292168)"><g><path d="M 13.441406 -28.15625 L 3.429688 -28.15625 L 3.429688 0 L 13.441406 0 C 22.574219 0 27.160156 -6.941406 27.160156 -13.917969 C 27.160156 -20.898438 22.574219 -28.15625 13.441406 -28.15625 Z M 13.441406 -4.027344 L 7.457031 -4.027344 L 7.457031 -24.128906 L 13.441406 -24.128906 C 19.902344 -24.128906 23.171875 -18.863281 23.171875 -13.917969 C 23.171875 -8.972656 19.902344 -4.027344 13.441406 -4.027344 Z M 13.441406 -4.027344 "/></g></g></g><g fill="#22a71b" fill-opacity="1"><g transform="translate(382.829164, 128.292168)"><g><path d="M 20.460938 -4.027344 L 7.5 -4.027344 L 7.5 -12.246094 L 20.140625 -12.246094 L 20.140625 -16.3125 L 7.5 -16.3125 L 7.5 -24.167969 L 20.421875 -24.167969 L 20.421875 -28.199219 L 3.429688 -28.199219 L 3.429688 0 L 20.460938 0 Z M 20.460938 -4.027344 "/></g></g></g></svg>