<svg xmlns="http://www.w3.org/2000/svg" xmlns:xlink="http://www.w3.org/1999/xlink" width="618" zoomAndPan="magnify" viewBox="0 0 463.5 234.749994" height="313" preserveAspectRatio="xMidYMid meet" version="1.0"><defs><g/><clipPath id="b4322aed0b"><path d="M 107 97 L 146.222656 97 L 146.222656 137 L 107 137 Z M 107 97 " clip-rule="nonzero"/></clipPath><clipPath id="853a4eb5d7"><path d="M 91 75.367188 L 115 75.367188 L 115 82 L 91 82 Z M 91 75.367188 " clip-rule="nonzero"/></clipPath><clipPath id="c46b1df4c4"><path d="M 75.722656 90 L 97 90 L 97 97 L 75.722656 97 Z M 75.722656 90 " clip-rule="nonzero"/></clipPath><clipPath id="bd4573f2c0"><path d="M 75.722656 113 L 89 113 L 89 117 L 75.722656 117 Z M 75.722656 113 " clip-rule="nonzero"/></clipPath><clipPath id="c89b2a2d0f"><path d="M 75.722656 137 L 96 137 L 96 144 L 75.722656 144 Z M 75.722656 137 " clip-rule="nonzero"/></clipPath><clipPath id="62279b84d4"><path d="M 91 153 L 115 153 L 115 159.367188 L 91 159.367188 Z M 91 153 " clip-rule="nonzero"/></clipPath></defs><path fill="#f5917b" d="M 126.855469 140.054688 L 126.855469 151.019531 C 118.519531 151.019531 110.878906 148.007812 104.957031 143.007812 L 111.96875 134.605469 C 115.996094 138.003906 121.1875 140.054688 126.855469 140.054688 " fill-opacity="1" fill-rule="nonzero"/><path fill="#f14662" d="M 111.96875 134.605469 L 104.957031 143.007812 C 99.683594 138.554688 95.769531 132.523438 93.9375 125.636719 L 104.480469 122.796875 C 105.722656 127.476562 108.382812 131.578125 111.96875 134.605469 " fill-opacity="1" fill-rule="nonzero"/><path fill="#46a998" d="M 103.695312 116.769531 C 103.695312 118.851562 103.96875 120.875 104.480469 122.796875 L 93.9375 125.636719 C 93.1875 122.808594 92.785156 119.835938 92.785156 116.769531 C 92.785156 112.652344 93.507812 108.707031 94.832031 105.050781 L 105.085938 108.804688 C 104.1875 111.289062 103.695312 113.972656 103.695312 116.769531 " fill-opacity="1" fill-rule="nonzero"/><path fill="#235a73" d="M 113.570312 97.695312 C 109.71875 100.410156 106.726562 104.28125 105.085938 108.804688 L 94.832031 105.050781 C 97.242188 98.398438 101.644531 92.707031 107.3125 88.710938 L 113.570312 97.695312 " fill-opacity="1" fill-rule="nonzero"/><path fill="#1d3055" d="M 126.855469 82.515625 L 126.855469 93.484375 C 121.914062 93.484375 117.332031 95.042969 113.570312 97.695312 L 107.3125 88.710938 C 112.847656 84.808594 119.585938 82.515625 126.855469 82.515625 " fill-opacity="1" fill-rule="nonzero"/><g clip-path="url(#b4322aed0b)"><path fill="#e9eaea" d="M 146.199219 116.769531 C 146.199219 127.507812 137.539062 136.210938 126.855469 136.210938 C 116.175781 136.210938 107.515625 127.507812 107.515625 116.769531 C 107.515625 106.03125 116.175781 97.324219 126.855469 97.324219 C 137.539062 97.324219 146.199219 106.03125 146.199219 116.769531 " fill-opacity="1" fill-rule="nonzero"/></g><g clip-path="url(#853a4eb5d7)"><path fill="#1d3055" d="M 110.269531 76.34375 L 94.027344 76.34375 C 93.890625 75.78125 93.386719 75.367188 92.785156 75.367188 C 92.078125 75.367188 91.503906 75.941406 91.503906 76.652344 C 91.503906 77.367188 92.078125 77.941406 92.785156 77.941406 C 93.378906 77.941406 93.875 77.539062 94.023438 76.988281 L 109.988281 76.988281 L 113.925781 81.269531 L 114.398438 80.828125 L 110.269531 76.34375 " fill-opacity="1" fill-rule="nonzero"/></g><g clip-path="url(#c46b1df4c4)"><path fill="#235a73" d="M 91.964844 91.300781 L 78.257812 91.300781 C 78.117188 90.742188 77.617188 90.332031 77.019531 90.332031 C 76.3125 90.332031 75.738281 90.90625 75.738281 91.617188 C 75.738281 92.332031 76.3125 92.90625 77.019531 92.90625 C 77.613281 92.90625 78.113281 92.5 78.253906 91.945312 L 91.683594 91.945312 L 95.621094 96.226562 L 96.09375 95.785156 L 91.964844 91.300781 " fill-opacity="1" fill-rule="nonzero"/></g><g clip-path="url(#bd4573f2c0)"><path fill="#46a998" d="M 88.753906 114.640625 L 78.257812 114.640625 C 78.113281 114.085938 77.613281 113.675781 77.019531 113.675781 C 76.3125 113.675781 75.738281 114.253906 75.738281 114.964844 C 75.738281 115.675781 76.3125 116.25 77.019531 116.25 C 77.613281 116.25 78.113281 115.839844 78.257812 115.285156 L 88.753906 115.285156 L 88.753906 114.640625 " fill-opacity="1" fill-rule="nonzero"/></g><g clip-path="url(#c89b2a2d0f)"><path fill="#f14662" d="M 95.652344 137.699219 L 95.179688 137.261719 L 91.242188 141.539062 L 78.257812 141.539062 C 78.121094 140.980469 77.617188 140.566406 77.019531 140.566406 C 76.3125 140.566406 75.738281 141.144531 75.738281 141.855469 C 75.738281 142.566406 76.3125 143.140625 77.019531 143.140625 C 77.609375 143.140625 78.109375 142.738281 78.253906 142.1875 L 91.523438 142.1875 L 95.652344 137.699219 " fill-opacity="1" fill-rule="nonzero"/></g><g clip-path="url(#62279b84d4)"><path fill="#f5917b" d="M 114.398438 153.90625 L 113.925781 153.46875 L 109.988281 157.746094 L 94.023438 157.746094 C 93.878906 157.195312 93.378906 156.789062 92.785156 156.789062 C 92.078125 156.789062 91.503906 157.367188 91.503906 158.078125 C 91.503906 158.789062 92.078125 159.367188 92.785156 159.367188 C 93.386719 159.367188 93.886719 158.953125 94.027344 158.394531 L 110.269531 158.394531 L 114.398438 153.90625 " fill-opacity="1" fill-rule="nonzero"/></g><g fill="#22a71b" fill-opacity="1"><g transform="translate(111.531859, 130.395523)"><g><path d="M 1.558594 -13.894531 C 1.558594 -10.023438 3.234375 -6.46875 5.628906 -3.914062 C 8.066406 -1.359375 11.578125 0.199219 15.371094 0.199219 C 21.878906 0.199219 26.992188 -4.113281 28.585938 -10.460938 L 24.632812 -10.460938 C 23.195312 -6.230469 19.605469 -3.792969 15.371094 -3.792969 C 12.695312 -3.792969 10.023438 -4.910156 8.265625 -6.746094 C 6.507812 -8.585938 5.46875 -11.097656 5.46875 -13.894531 C 5.46875 -16.769531 6.546875 -19.246094 8.304688 -21.082031 C 10.0625 -22.917969 12.695312 -24.195312 15.371094 -24.195312 C 19.484375 -24.195312 22.917969 -21.960938 24.394531 -17.765625 L 28.386719 -17.765625 C 26.789062 -24.074219 21.761719 -28.1875 15.371094 -28.1875 C 11.578125 -28.1875 7.945312 -26.429688 5.511719 -23.914062 C 3.113281 -21.359375 1.558594 -17.847656 1.558594 -13.894531 Z M 1.558594 -13.894531 "/></g></g></g><g fill="#22a71b" fill-opacity="1"><g transform="translate(147.785099, 130.395523)"><g><path d="M 20.601562 -4.03125 L 7.464844 -4.03125 L 7.464844 -27.949219 L 3.433594 -27.949219 L 3.433594 0 L 20.601562 0 Z M 20.601562 -4.03125 "/></g></g></g><g fill="#22a71b" fill-opacity="1"><g transform="translate(174.735456, 130.395523)"><g><path d="M 6.90625 -7.066406 L 18.246094 -7.066406 L 20.921875 0 L 25.234375 0 L 14.015625 -28.308594 L 11.058594 -28.308594 L -0.160156 0 L 4.191406 0 Z M 16.769531 -10.859375 L 8.382812 -10.859375 L 12.578125 -21.878906 Z M 16.769531 -10.859375 "/></g></g></g><g fill="#22a71b" fill-opacity="1"><g transform="translate(206.197511, 130.395523)"><g><path d="M 13.65625 -27.949219 L 3.433594 -27.949219 L 3.433594 0 L 7.507812 0 L 7.507812 -9.304688 L 13.65625 -9.304688 C 19.683594 -9.304688 22.71875 -13.933594 22.71875 -18.605469 C 22.71875 -23.277344 19.683594 -27.949219 13.65625 -27.949219 Z M 13.65625 -13.296875 L 7.507812 -13.296875 L 7.507812 -23.875 L 13.65625 -23.875 C 17.046875 -23.875 18.726562 -21.242188 18.726562 -18.566406 C 18.726562 -15.929688 17.046875 -13.296875 13.65625 -13.296875 Z M 13.65625 -13.296875 "/></g></g></g><g fill="#22a71b" fill-opacity="1"><g transform="translate(236.062517, 130.395523)"><g><path d="M 1.558594 -13.894531 C 1.558594 -10.023438 3.234375 -6.46875 5.628906 -3.914062 C 8.066406 -1.359375 11.578125 0.199219 15.371094 0.199219 C 21.878906 0.199219 26.992188 -4.113281 28.585938 -10.460938 L 24.632812 -10.460938 C 23.195312 -6.230469 19.605469 -3.792969 15.371094 -3.792969 C 12.695312 -3.792969 10.023438 -4.910156 8.265625 -6.746094 C 6.507812 -8.585938 5.46875 -11.097656 5.46875 -13.894531 C 5.46875 -16.769531 6.546875 -19.246094 8.304688 -21.082031 C 10.0625 -22.917969 12.695312 -24.195312 15.371094 -24.195312 C 19.484375 -24.195312 22.917969 -21.960938 24.394531 -17.765625 L 28.386719 -17.765625 C 26.789062 -24.074219 21.761719 -28.1875 15.371094 -28.1875 C 11.578125 -28.1875 7.945312 -26.429688 5.511719 -23.914062 C 3.113281 -21.359375 1.558594 -17.847656 1.558594 -13.894531 Z M 1.558594 -13.894531 "/></g></g></g><g fill="#22a71b" fill-opacity="1"><g transform="translate(272.315759, 130.395523)"><g><path d="M 1.398438 -13.972656 C 1.398438 -5.910156 7.824219 0.519531 15.890625 0.519531 C 23.957031 0.519531 30.425781 -5.910156 30.425781 -13.972656 C 30.425781 -22.039062 23.957031 -28.507812 15.890625 -28.507812 C 7.824219 -28.507812 1.398438 -22.039062 1.398438 -13.972656 Z M 5.550781 -13.972656 C 5.550781 -19.722656 10.140625 -24.355469 15.890625 -24.355469 C 21.640625 -24.355469 26.273438 -19.722656 26.273438 -13.972656 C 26.273438 -8.226562 21.640625 -3.632812 15.890625 -3.632812 C 10.140625 -3.632812 5.550781 -8.226562 5.550781 -13.972656 Z M 5.550781 -13.972656 "/></g></g></g><g fill="#22a71b" fill-opacity="1"><g transform="translate(310.565321, 130.395523)"><g><path d="M 13.457031 -28.1875 L 3.433594 -28.1875 L 3.433594 0 L 13.457031 0 C 22.597656 0 27.191406 -6.945312 27.191406 -13.933594 C 27.191406 -20.921875 22.597656 -28.1875 13.457031 -28.1875 Z M 13.457031 -4.03125 L 7.464844 -4.03125 L 7.464844 -24.15625 L 13.457031 -24.15625 C 19.921875 -24.15625 23.195312 -18.886719 23.195312 -13.933594 C 23.195312 -8.984375 19.921875 -4.03125 13.457031 -4.03125 Z M 13.457031 -4.03125 "/></g></g></g><g fill="#22a71b" fill-opacity="1"><g transform="translate(345.660676, 130.395523)"><g><path d="M 20.480469 -4.03125 L 7.507812 -4.03125 L 7.507812 -12.257812 L 20.164062 -12.257812 L 20.164062 -16.328125 L 7.507812 -16.328125 L 7.507812 -24.195312 L 20.441406 -24.195312 L 20.441406 -28.226562 L 3.433594 -28.226562 L 3.433594 0 L 20.480469 0 Z M 20.480469 -4.03125 "/></g></g></g></svg>